{"accessors" : [{"bufferView" : 0, "byteOffset" : 0, "componentType" : 5123, "count" : 3744, "type" : "SCALAR", "max" : [621], "min" : [0]}, {"bufferView" : 1, "byteOffset" : 0, "componentType" : 5126, "count" : 622, "type" : "VEC3", "max" : [7, -16.639999389648438, 55.06999969482422], "min" : [-5.78000020980835, -22, 31.770000457763672], "name" : "POSITION"}], "asset" : {"generator" : "Aspose.3D 24.9.1", "version" : "2.0"}, "buffers" : [{"uri" : "data:application/octet-stream;base64,", "byteLength" : 14960}], "bufferViews" : [{"buffer" : 0, "byteOffset" : 0, "byteLength" : 7488, "target" : 34963}, {"buffer" : 0, "byteOffset" : 7492, "byteLength" : 7464, "byteStride" : 12, "target" : 34962}], "meshes" : [{"primitives" : [{"attributes" : {"POSITION" : 1}, "indices" : 0, "mode" : 4}], "name" : ""}], "nodes" : [{"mesh" : 0, "name" : "group_0_1913808"}], "scene" : 0, "scenes" : [{"nodes" : [0]}]}